<svg xmlns="http://www.w3.org/2000/svg" version="1.1" width="1500" height="454" viewBox="0 0 1500 454"><g transform="matrix(1,0,0,1,-0.9090909090909918,-0.40606582914665523)"><svg viewBox="0 0 396 120" data-background-color="#ffffff" preserveAspectRatio="xMidYMid meet" height="454" width="1500" xmlns="http://www.w3.org/2000/svg" xmlns:xlink="http://www.w3.org/1999/xlink"><g id="tight-bounds" transform="matrix(1,0,0,1,0.2400000000000091,0.35125371444314624)"><svg viewBox="0 0 395.52 119.29749257111371" height="119.29749257111371" width="395.52"><g><svg viewBox="0 0 397.4975999999999 119.89398003396926" height="119.29749257111371" width="395.52"><g><rect width="397.4975999999999" height="3.4296540169846153" x="0" y="61.53667495384616" fill="#556970" opacity="1" stroke-width="0" stroke="transparent" fill-opacity="1" class="rect-yte-0" data-fill-palette-color="primary" rx="1%" id="yte-0" data-palette-color="#556970"></rect></g><g><rect width="397.4975999999999" height="3.4296540169846153" x="0" y="69.4554049092923" fill="#556970" opacity="1" stroke-width="0" stroke="transparent" fill-opacity="1" class="rect-yte-1" data-fill-palette-color="primary" rx="1%" id="yte-1" data-palette-color="#556970"></rect></g><g transform="matrix(1,0,0,1,0.9887999999999693,81.86321080319999)"><svg viewBox="0 0 395.52 38.03076923076923" height="38.03076923076923" width="395.52"><g id="textblocktransform"><svg viewBox="0 0 395.52 38.03076923076923" height="38.03076923076923" width="395.52" id="textblock"><g><svg viewBox="0 0 395.52 38.03076923076923" height="38.03076923076923" width="395.52"><g transform="matrix(1,0,0,1,0,0)"><svg width="395.52" viewBox="1.05 -37.5 519.95 50" height="38.03076923076923" data-palette-color="#556970"><path d="M1.05-33.9L1.05-35 27.05-35 27.55-24.6 26.65-24.6Q24.8-30 22.38-31.95 19.95-33.9 15.15-33.9L15.15-33.9 13.75-33.9 13.75-17.65 16-17.65Q18.4-17.65 20-19.4 21.6-21.15 22.2-24.2L22.2-24.2 22.95-24.2 22.95-9.4 22.1-9.4Q21.3-13.15 19.88-14.75 18.45-16.35 16-16.35L16-16.35 13.75-16.35 13.75-1.1 19.95-1.1 19.95 0 1.05 0 1.05-1.1 4-1.1 4-33.9 1.05-33.9ZM45.8-22.4L45.8-22.4Q43.95-22.4 42.55-20 41.15-17.6 41.15-14.3L41.15-14.3 41.15-0.9 44.7-0.9 44.7 0 29.1 0 29.1-0.9 31.85-0.9 31.85-22.9 29.1-22.9 29.1-23.8 41.15-23.8 41.15-19Q41.8-21.55 43.65-22.93 45.5-24.3 47.85-24.3 50.2-24.3 51.67-22.98 53.15-21.65 53.15-19.23 53.15-16.8 52.05-15.5 50.95-14.2 48.67-14.2 46.4-14.2 45.32-15.7 44.25-17.2 45.05-19.85L45.05-19.85 46.85-19.85Q48.1-22.4 45.8-22.4ZM66.75 0.5Q60.3 0.5 57.07-2.83 53.84-6.15 53.84-12.08 53.84-18 57.47-21.15 61.09-24.3 66.69-24.3L66.69-24.3Q78.05-24.3 77.59-12.9L77.59-12.9 63.49-12.9 63.49-10.95Q63.49-6.05 64.75-3.55 66-1.05 69.09-1.05L69.09-1.05Q74.89-1.05 76.69-7.25L76.69-7.25 77.59-7.1Q76.64-3.5 74.17-1.5 71.69 0.5 66.75 0.5L66.75 0.5ZM63.55-16.35L63.55-13.9 68.69-13.9 68.69-16.35Q68.69-20.4 68.22-21.88 67.75-23.35 66.32-23.35 64.89-23.35 64.22-21.78 63.55-20.2 63.55-16.35L63.55-16.35ZM92.54 0.5Q86.09 0.5 82.87-2.83 79.64-6.15 79.64-12.08 79.64-18 83.27-21.15 86.89-24.3 92.49-24.3L92.49-24.3Q103.84-24.3 103.39-12.9L103.39-12.9 89.29-12.9 89.29-10.95Q89.29-6.05 90.54-3.55 91.79-1.05 94.89-1.05L94.89-1.05Q100.69-1.05 102.49-7.25L102.49-7.25 103.39-7.1Q102.44-3.5 99.97-1.5 97.49 0.5 92.54 0.5L92.54 0.5ZM89.34-16.35L89.34-13.9 94.49-13.9 94.49-16.35Q94.49-20.4 94.02-21.88 93.54-23.35 92.12-23.35 90.69-23.35 90.02-21.78 89.34-20.2 89.34-16.35L89.34-16.35ZM104.99-36.6L104.99-37.5 117.24-37.5 117.24-0.9 120.04-0.9 120.04 0 105.19 0 105.19-0.9 107.94-0.9 107.94-36.6 104.99-36.6ZM132.99-11.75L132.99-11.75 134.44-11.75 134.44-15.6Q134.44-20.35 133.91-21.98 133.39-23.6 131.89-23.6L131.89-23.6Q130.99-23.6 130.26-23.13 129.54-22.65 129.54-21.83 129.54-21 129.84-20.15L129.84-20.15 131.09-20.15Q131.49-19.1 131.49-17.63 131.49-16.15 130.24-15.08 128.99-14 127.09-14L127.09-14Q122.79-14 122.79-18.15L122.79-18.15Q122.79-24.3 133.24-24.3L133.24-24.3Q139.19-24.3 141.46-22.28 143.74-20.25 143.74-14.85L143.74-14.85 143.74-4.7Q143.74-2.1 145.19-2.1L145.19-2.1Q146.89-2.1 147.19-7.25L147.19-7.25 147.94-7.2Q147.74-2.8 146.29-1.15 144.84 0.5 141.54 0.5L141.54 0.5Q135.54 0.5 134.64-3.2L134.64-3.2Q133.99-1.3 132.69-0.4 131.39 0.5 128.89 0.5L128.89 0.5Q121.49 0.5 121.49-5.55L121.49-5.55Q121.49-9.1 124.31-10.43 127.14-11.75 132.99-11.75ZM130.99-5.6Q130.99-3 131.26-2.25 131.54-1.5 132.31-1.5 133.09-1.5 133.76-2.78 134.44-4.05 134.44-6.3L134.44-6.3 134.44-10.95 134.09-10.95Q130.99-10.95 130.99-6.4L130.99-6.4 130.99-5.6ZM148.53-22.9L148.53-23.8 160.59-23.8 160.59-19.2Q161.38-21.5 163.03-22.9 164.69-24.3 168.03-24.3L168.03-24.3Q175.78-24.3 175.78-15.95L175.78-15.95 175.78-0.9 178.59-0.9 178.59 0 164.44 0 164.44-0.9 166.49-0.9 166.49-17.15Q166.49-20.15 166.09-21.03 165.69-21.9 164.63-21.9L164.63-21.9Q163.03-21.9 161.81-19.8 160.59-17.7 160.59-14.7L160.59-14.7 160.59-0.9 162.74-0.9 162.74 0 148.53 0 148.53-0.9 151.28-0.9 151.28-22.9 148.53-22.9ZM193.23-23.4L193.23-23.4Q191.03-23.4 190.08-21 189.13-18.6 189.13-13.05L189.13-13.05 189.13-10.45Q189.13-5.5 190.23-3.35 191.33-1.2 194.28-1.2 197.23-1.2 198.98-3.2 200.73-5.2 201.23-7.75L201.23-7.75 202.13-7.65Q201.18-3.35 198.63-1.45L198.63-1.45Q196.03 0.5 191.48 0.5L191.48 0.5Q185.68 0.5 182.58-2.63 179.48-5.75 179.48-11.78 179.48-17.8 183.01-21.05 186.53-24.3 192.83-24.3L192.83-24.3Q197.28-24.3 199.63-22.58 201.98-20.85 201.98-18.25 201.98-15.65 200.86-14.45 199.73-13.25 197.76-13.25 195.78-13.25 194.58-14.3 193.38-15.35 193.38-17.4L193.38-17.4Q193.38-18.3 193.63-19.2L193.63-19.2 195.28-19.2Q195.63-20.2 195.63-21L195.63-21Q195.63-23.4 193.23-23.4ZM216.53 0.5Q210.08 0.5 206.86-2.83 203.63-6.15 203.63-12.08 203.63-18 207.26-21.15 210.88-24.3 216.48-24.3L216.48-24.3Q227.83-24.3 227.38-12.9L227.38-12.9 213.28-12.9 213.28-10.95Q213.28-6.05 214.53-3.55 215.78-1.05 218.88-1.05L218.88-1.05Q224.68-1.05 226.48-7.25L226.48-7.25 227.38-7.1Q226.43-3.5 223.96-1.5 221.48 0.5 216.53 0.5L216.53 0.5ZM213.33-16.35L213.33-13.9 218.48-13.9 218.48-16.35Q218.48-20.4 218.01-21.88 217.53-23.35 216.11-23.35 214.68-23.35 214.01-21.78 213.33-20.2 213.33-16.35L213.33-16.35ZM250.08-9.25L256.08-35 269.43-35 269.43-34.05 266.68-34.05 266.68-0.95 269.43-0.95 269.43 0 254.18 0 254.18-0.95 256.93-0.95 256.93-32.2 256.73-32.2 249.23 0 242.98 0 234.18-32.35 233.98-32.35 233.98-0.95 236.73-0.95 236.73 0 229.93 0 229.93-0.95 232.68-0.95 232.68-34.05 229.93-34.05 229.93-35 243.43-35 250.08-9.25ZM287.32-9.85L287.32-9.85 287.32-14.1Q287.32-18.95 286.8-21.18 286.28-23.4 284.38-23.4L284.38-23.4Q283.28-23.4 282.6-22.78 281.93-22.15 281.63-20.7L281.63-20.7Q281.18-18.45 281.18-13.85L281.18-13.85 281.18-9.95Q281.18-4.5 281.5-3.4 281.82-2.3 282.18-1.6L282.18-1.6Q282.73-0.4 284.32-0.4L284.32-0.4Q286.28-0.4 286.88-2.65L286.88-2.65Q287.32-4.25 287.32-9.85ZM284.23 0.5Q277.98 0.5 274.78-2.7 271.57-5.9 271.57-11.88 271.57-17.85 275-21.08 278.43-24.3 284.63-24.3 290.82-24.3 293.88-21.33 296.93-18.35 296.93-12.25L296.93-12.25Q296.93 0.5 284.23 0.5L284.23 0.5ZM312.32-23.4L312.32-23.4Q310.12-23.4 309.17-21 308.22-18.6 308.22-13.05L308.22-13.05 308.22-10.45Q308.22-5.5 309.32-3.35 310.42-1.2 313.37-1.2 316.32-1.2 318.07-3.2 319.82-5.2 320.32-7.75L320.32-7.75 321.22-7.65Q320.27-3.35 317.72-1.45L317.72-1.45Q315.12 0.5 310.57 0.5L310.57 0.5Q304.77 0.5 301.67-2.63 298.57-5.75 298.57-11.78 298.57-17.8 302.1-21.05 305.62-24.3 311.92-24.3L311.92-24.3Q316.37-24.3 318.72-22.58 321.07-20.85 321.07-18.25 321.07-15.65 319.95-14.45 318.82-13.25 316.85-13.25 314.87-13.25 313.67-14.3 312.47-15.35 312.47-17.4L312.47-17.4Q312.47-18.3 312.72-19.2L312.72-19.2 314.37-19.2Q314.72-20.2 314.72-21L314.72-21Q314.72-23.4 312.32-23.4ZM352.22 0L338.32 0 338.32-0.9 340.62-0.9 334.97-12.5 334.02-12.25 334.02-0.9 336.32-0.9 336.32 0 321.97 0 321.97-0.9 324.72-0.9 324.72-36.6 321.77-36.6 321.77-37.5 334.02-37.5 334.02-13.25 334.82-13.55 346.07-22.9 341.37-22.9 341.37-23.8 351.22-23.8 351.22-22.9 347.72-22.9 341.77-17.85 350.42-0.9 352.22-0.9 352.22 0ZM353.22-34.05L353.22-35 367.92-35Q375.47-35 379.17-32.83 382.87-30.65 382.87-25.05L382.87-25.05Q382.87-18.85 378.37-16.5L378.37-16.5Q374.17-14.35 366.62-14.35L366.62-14.35 366.22-14.35 366.22-0.95 372.47-0.95 372.47 0 353.22 0 353.22-0.95 356.47-0.95 356.47-34.05 353.22-34.05ZM367.57-34.05L366.22-34.05 366.22-15.3 367.27-15.3Q370.27-15.3 371.42-17.35 372.57-19.4 372.57-24L372.57-24 372.57-26.4Q372.57-30.65 371.49-32.35 370.42-34.05 367.57-34.05L367.57-34.05ZM401.36-22.4L401.36-22.4Q399.51-22.4 398.11-20 396.71-17.6 396.71-14.3L396.71-14.3 396.71-0.9 400.26-0.9 400.26 0 384.66 0 384.66-0.9 387.41-0.9 387.41-22.9 384.66-22.9 384.66-23.8 396.71-23.8 396.71-19Q397.36-21.55 399.21-22.93 401.06-24.3 403.41-24.3 405.76-24.3 407.24-22.98 408.71-21.65 408.71-19.23 408.71-16.8 407.61-15.5 406.51-14.2 404.24-14.2 401.96-14.2 400.89-15.7 399.81-17.2 400.61-19.85L400.61-19.85 402.41-19.85Q403.66-22.4 401.36-22.4ZM425.31-9.85L425.31-9.85 425.31-14.1Q425.31-18.95 424.79-21.18 424.26-23.4 422.36-23.4L422.36-23.4Q421.26-23.4 420.59-22.78 419.91-22.15 419.61-20.7L419.61-20.7Q419.16-18.45 419.16-13.85L419.16-13.85 419.16-9.95Q419.16-4.5 419.49-3.4 419.81-2.3 420.16-1.6L420.16-1.6Q420.71-0.4 422.31-0.4L422.31-0.4Q424.26-0.4 424.86-2.65L424.86-2.65Q425.31-4.25 425.31-9.85ZM422.21 0.5Q415.96 0.5 412.76-2.7 409.56-5.9 409.56-11.88 409.56-17.85 412.99-21.08 416.41-24.3 422.61-24.3 428.81-24.3 431.86-21.33 434.91-18.35 434.91-12.25L434.91-12.25Q434.91 0.5 422.21 0.5L422.21 0.5ZM435.81-23.8L448.36-23.8 448.36-4.3Q448.36 3.9 445.53 8.2 442.71 12.5 436.31 12.5L436.31 12.5Q432.16 12.5 430.23 10.85 428.31 9.2 428.31 7 428.31 4.8 429.61 3.63 430.91 2.45 432.86 2.45 434.81 2.45 435.78 3.53 436.76 4.6 436.76 5.9 436.76 7.2 436.46 8.4L436.46 8.4 434.56 8.4Q433.76 9.75 434.33 10.7 434.91 11.65 436.43 11.65 437.96 11.65 438.51 9.93 439.06 8.2 439.06 2.8L439.06 2.8 439.06-22.9 435.81-22.9 435.81-23.8ZM443.61-27.25Q440.96-27.25 439.83-28.6 438.71-29.95 438.71-31.95 438.71-33.95 439.93-35.25 441.16-36.55 443.66-36.55 446.16-36.55 447.46-35.38 448.76-34.2 448.76-32.02 448.76-29.85 447.51-28.55 446.26-27.25 443.61-27.25ZM465.01 0.5Q458.56 0.5 455.33-2.83 452.11-6.15 452.11-12.08 452.11-18 455.73-21.15 459.36-24.3 464.96-24.3L464.96-24.3Q476.31-24.3 475.86-12.9L475.86-12.9 461.76-12.9 461.76-10.95Q461.76-6.05 463.01-3.55 464.26-1.05 467.36-1.05L467.36-1.05Q473.16-1.05 474.96-7.25L474.96-7.25 475.86-7.1Q474.91-3.5 472.43-1.5 469.96 0.5 465.01 0.5L465.01 0.5ZM461.81-16.35L461.81-13.9 466.96-13.9 466.96-16.35Q466.96-20.4 466.48-21.88 466.01-23.35 464.58-23.35 463.16-23.35 462.48-21.78 461.81-20.2 461.81-16.35L461.81-16.35ZM491.65-23.4L491.65-23.4Q489.45-23.4 488.5-21 487.55-18.6 487.55-13.05L487.55-13.05 487.55-10.45Q487.55-5.5 488.65-3.35 489.75-1.2 492.7-1.2 495.65-1.2 497.4-3.2 499.15-5.2 499.65-7.75L499.65-7.75 500.55-7.65Q499.6-3.35 497.05-1.45L497.05-1.45Q494.45 0.5 489.9 0.5L489.9 0.5Q484.1 0.5 481-2.63 477.9-5.75 477.9-11.78 477.9-17.8 481.43-21.05 484.95-24.3 491.25-24.3L491.25-24.3Q495.7-24.3 498.05-22.58 500.4-20.85 500.4-18.25 500.4-15.65 499.28-14.45 498.15-13.25 496.18-13.25 494.2-13.25 493-14.3 491.8-15.35 491.8-17.4L491.8-17.4Q491.8-18.3 492.05-19.2L492.05-19.2 493.7-19.2Q494.05-20.2 494.05-21L494.05-21Q494.05-23.4 491.65-23.4ZM504.3-7.15L504.3-7.15 504.3-22.9 501.55-22.9 501.55-23.8 504.3-23.8 504.3-30.25 513.6-32.55 513.6-23.8 520.1-23.8 520.1-22.9 513.6-22.9 513.6-6.05Q513.6-3.7 514.08-2.6 514.55-1.5 516.05-1.5 517.55-1.5 518.68-3 519.8-4.5 520.15-7.1L520.15-7.1 521-7Q520.6-3.55 518.8-1.53 517 0.5 512.85 0.5 508.7 0.5 506.5-1.15 504.3-2.8 504.3-7.15Z" opacity="1" transform="matrix(1,0,0,1,0,0)" fill="#556970" class="wordmark-text-0" data-fill-palette-color="primary" id="text-0"></path></svg></g></svg></g></svg></g></svg></g><g transform="matrix(1,0,0,1,172.46930582197945,0)"><svg viewBox="0 0 52.558988356041006 52.55852307692308" height="52.55852307692308" width="52.558988356041006"><g><svg xmlns="http://www.w3.org/2000/svg" viewBox="2 2.000435584826344 60.000095566788524 59.99956441517366" x="0" y="0" height="52.55852307692308" width="52.558988356041006" class="icon-icon-0" data-fill-palette-color="accent" id="icon-0"><g fill="#aba944" data-fill-palette-color="accent"><circle cx="28" cy="23" r="1.0" fill="#aba944" data-fill-palette-color="accent"></circle><circle cx="36" cy="23" r="1.0" fill="#aba944" data-fill-palette-color="accent"></circle><path d="M29.553 31.9A5.5 5.5 0 0 0 34.447 31.9 1 1 0 1 0 33.553 30.11 3.48 3.48 0 0 1 30.447 30.11 1 1 0 0 0 29.553 31.9" fill="#aba944" data-fill-palette-color="accent"></path><path d="M17 49A3 3 0 1 0 14 52 3 3 0 0 0 17 49M14 50A1 1 0 1 1 15 49 1 1 0 0 1 14 50" fill="#aba944" data-fill-palette-color="accent"></path><path d="M61 47H52A3.96 3.96 0 0 0 50 47.556V41A7.04 7.04 0 0 0 44.621 34.2 3.82 3.82 0 0 0 41.173 32H40.465A8.9 8.9 0 0 0 41 29V27H41.5A3.5 3.5 0 0 0 41.5 20H41V15A5.006 5.006 0 0 0 36 10H21A1 1 0 0 0 20.014 11.165L20.735 15.493A2.98 2.98 0 0 0 23 17.91V20H22.5A3.5 3.5 0 0 0 22.5 27H23V29A8.9 8.9 0 0 0 23.535 32H22.83A3.84 3.84 0 0 0 19.37 34.2 7.05 7.05 0 0 0 14.08 40H3A1 1 0 0 0 2 41V57A1 1 0 0 0 2.1 57.416 2 2 0 0 0 2 58V60A2 2 0 0 0 4 62H60A2 2 0 0 0 62 60V58A1.98 1.98 0 0 0 61.487 56.676 3 3 0 0 0 62 55V48A1 1 0 0 0 61 47M41 22H41.5A1.5 1.5 0 0 1 41.5 25H41ZM23 25H22.5A1.5 1.5 0 0 1 22.5 22H23ZM54 54V49H60V55A1 1 0 0 1 59 56H55A1 1 0 0 1 54 55ZM52 49V53A2 2 0 0 1 52 49M48.985 55.987A4 4 0 0 0 49.469 55.194C49.536 55.055 49.606 54.911 49.662 54.762S49.754 54.484 49.793 54.341V54.33A3.97 3.97 0 0 0 52 55 3 3 0 0 0 52.184 56H48.976ZM45 39.173V36.444A5.02 5.02 0 0 1 48 41V44H41A1 1 0 0 0 40 45V50H32A4.99 4.99 0 0 0 28 52H25V43H26A0.99 0.99 0 0 0 26.962 42.19 7.916 7.916 0 0 0 37.038 42.19 0.99 0.99 0 0 0 38 43H41.173A3.83 3.83 0 0 0 45 39.173M44 50H42V46H48V53A3 3 0 0 1 47.951 53.486 3 3 0 0 1 47.865 53.841C47.845 53.909 47.827 53.977 47.803 54.041A3 3 0 0 1 47.669 54.341C47.635 54.409 47.599 54.477 47.56 54.541A3 3 0 0 1 47.381 54.802C47.335 54.863 47.286 54.922 47.236 54.979A3 3 0 0 1 47.014 55.206C46.958 55.257 46.899 55.306 46.84 55.35A3 3 0 0 1 46.582 55.536C46.514 55.579 46.442 55.614 46.371 55.651A3 3 0 0 1 46.098 55.783 3 3 0 0 1 45.813 55.872C45.732 55.895 45.653 55.924 45.569 55.941A3 3 0 0 1 45 56H29V55A3.01 3.01 0 0 1 32 52H44A1 1 0 0 0 44 50M27.111 54A5 5 0 0 0 27 55V56H25V54ZM28.48 18H35.52L39 22.35V25.586L36.956 27.63A7.76 7.76 0 0 0 32.436 26.022L32.217 25.803 32.895 24.447A1 1 0 0 0 31.105 23.553L30.105 25.553A1 1 0 0 0 30.036 26.231 7.7 7.7 0 0 0 27.044 27.631L25 25.586V22.35ZM25 19.149V18H25.919ZM38.081 18H39V19.149ZM26.293 29.707A1 1 0 0 0 27.707 29.707 5.8 5.8 0 0 1 31.829 28H32.171A5.8 5.8 0 0 1 36.293 29.707 1 1 0 0 0 37.707 29.707L39 28.414V29A6.9 6.9 0 0 1 38.3 32H38A1 1 0 0 0 37 33V33.878C36.878 34.004 36.76 34.134 36.629 34.249A7 7 0 0 1 27.371 34.249C27.24 34.133 27.122 34.003 27 33.877V33A1 1 0 0 0 26 32H25.7A6.9 6.9 0 0 1 25 29V28.414ZM37 36.47V39.293A5.97 5.97 0 0 1 27 39.293V36.47A8.935 8.935 0 0 0 37 36.47M41.173 34A1.83 1.83 0 0 1 43 35.827V39.173A1.83 1.83 0 0 1 41.173 41H39V34ZM22.708 15.164L22.181 12H36A3 3 0 0 1 39 15V16H23.694A1 1 0 0 1 22.708 15.164M21 35.83A1.8 1.8 0 0 1 21.073 35.337 1.83 1.83 0 0 1 22.83 34H25V41A1 1 0 0 0 24 40H21.21A1.8 1.8 0 0 1 21 39.17ZM19 36.444V39.17A3.8 3.8 0 0 0 19.1 40H16.111A5.03 5.03 0 0 1 19 36.444M4 42H23V56H4ZM4 60V58H60V60Z" fill="#aba944" data-fill-palette-color="accent"></path><path d="M53 45H55C55 44.438 55.217 44.2 55.707 43.707A3.48 3.48 0 0 0 55.707 38.293C55.217 37.8 55 37.562 55 37H53A3.56 3.56 0 0 0 54.293 39.707C54.783 40.197 55 40.438 55 41S54.783 41.8 54.293 42.293A3.56 3.56 0 0 0 53 45" fill="#aba944" data-fill-palette-color="accent"></path><path d="M60 37H58A3.56 3.56 0 0 0 59.293 39.707C59.783 40.197 60 40.438 60 41S59.783 41.8 59.293 42.293A3.56 3.56 0 0 0 58 45H60C60 44.438 60.217 44.2 60.707 43.707A3.48 3.48 0 0 0 60.707 38.293C60.217 37.8 60 37.562 60 37" fill="#aba944" data-fill-palette-color="accent"></path><path d="M60.725 2.039L53.725 4.039A1 1 0 0 0 53 5V11H52A3 3 0 1 0 55 14V9.754L60 8.326V11H59A3 3 0 1 0 62 14V3A1 1 0 0 0 60.725 2.039M53 14A1 1 0 1 1 52 13H53ZM60 14A1 1 0 1 1 59 13H60ZM60 5V6.246L55 7.674V5.754L60 4.326Z" fill="#aba944" data-fill-palette-color="accent"></path><path d="M5 30A3 3 0 0 0 8 27V20.721L10.316 19.949A1 1 0 1 0 9.684 18.049L6.684 19.049A1 1 0 0 0 6 20V24H5A3 3 0 0 0 5 30M5 26H6V27A1 1 0 1 1 5 26" fill="#aba944" data-fill-palette-color="accent"></path><path d="M51 31A3 3 0 0 0 54 28V21.721L56.316 20.949A1 1 0 1 0 55.684 19.049L52.684 20.049A1 1 0 0 0 52 21V25H51A3 3 0 0 0 51 31M51 27H52V28A1 1 0 1 1 51 27" fill="#aba944" data-fill-palette-color="accent"></path></g></svg></g></svg></g><g></g></svg></g><defs></defs></svg><rect width="395.52" height="119.29749257111371" fill="none" stroke="none" visibility="hidden"></rect></g></svg></g></svg>